<?xml version="1.0" encoding="UTF-8" standalone="no"?>
<!-- Created with Inkscape (http://www.inkscape.org/) -->

<svg
   xmlns:dc="http://purl.org/dc/elements/1.1/"
   xmlns:cc="http://creativecommons.org/ns#"
   xmlns:rdf="http://www.w3.org/1999/02/22-rdf-syntax-ns#"
   xmlns:svg="http://www.w3.org/2000/svg"
   xmlns="http://www.w3.org/2000/svg"
   xmlns:sodipodi="http://sodipodi.sourceforge.net/DTD/sodipodi-0.dtd"
   xmlns:inkscape="http://www.inkscape.org/namespaces/inkscape"
   width="49.491364mm"
   height="43.132374mm"
   viewBox="0 0 49.491363 43.132374"
   version="1.1"
   id="svg4591"
   inkscape:version="0.92.4 (5da689c313, 2019-01-14)"
   sodipodi:docname="computer.svg">
  <defs
     id="defs4585" />
  <sodipodi:namedview
     id="base"
     pagecolor="#ffffff"
     bordercolor="#666666"
     borderopacity="1.0"
     inkscape:pageopacity="0.0"
     inkscape:pageshadow="2"
     inkscape:zoom="1.979899"
     inkscape:cx="27.795048"
     inkscape:cy="39.119555"
     inkscape:document-units="mm"
     inkscape:current-layer="layer1"
     showgrid="false"
     inkscape:window-width="1920"
     inkscape:window-height="1050"
     inkscape:window-x="1920"
     inkscape:window-y="0"
     inkscape:window-maximized="1"
     fit-margin-top="0"
     fit-margin-left="0"
     fit-margin-right="0"
     fit-margin-bottom="0" />
  <metadata
     id="metadata4588">
    <rdf:RDF>
      <cc:Work
         rdf:about="">
        <dc:format>image/svg+xml</dc:format>
        <dc:type
           rdf:resource="http://purl.org/dc/dcmitype/StillImage" />
        <dc:title></dc:title>
      </cc:Work>
    </rdf:RDF>
  </metadata>
  <g
     inkscape:label="Calque 1"
     inkscape:groupmode="layer"
     id="layer1"
     transform="translate(-53.502015,-31.261194)">
    <path
       inkscape:connector-curvature="0"
       id="path3745"
       style="fill:#ffffff;fill-opacity:1;fill-rule:nonzero;stroke:none;stroke-width:0.03527778"
       d="m 93.556225,37.955857 h 0.70555 V 37.60308 h -0.70555 z" />
    <path
       inkscape:connector-curvature="0"
       id="path3747"
       style="fill:#ffffff;fill-opacity:1;fill-rule:nonzero;stroke:none;stroke-width:0.02116335"
       d="m 95.680433,43.861735 h -0.490317 v -0.352777 h 0.490317 v 0.352777 m 0.980898,0 H 96.17088 v -0.352777 h 0.490451 v 0.352777 m 0.980639,0 h -0.490321 v -0.352777 h 0.490321 v 0.352777 m 0.980894,0 h -0.490447 v -0.352777 h 0.490447 v 0.352777" />
    <path
       inkscape:connector-curvature="0"
       id="path3763"
       style="fill:#ffffff;fill-opacity:1;fill-rule:nonzero;stroke:none;stroke-width:0.02116335"
       d="m 89.940856,47.300941 h -0.253923 v -0.352778 h 0.253923 v 0.352778" />
    <path
       inkscape:connector-curvature="0"
       id="path3765"
       style="fill:#ffffff;fill-opacity:1;fill-rule:nonzero;stroke:none;stroke-width:0.02116335"
       d="m 90.860299,47.300941 h -0.45972 v -0.352778 h 0.45972 z m 0.919573,0 h -0.459723 v -0.352778 h 0.459723 z m 0.919701,0 h -0.459851 v -0.352778 h 0.459851 z m 0.919444,0 h -0.459724 v -0.352778 h 0.459724 z m 0.919573,0 h -0.459724 v -0.352778 h 0.459724 v 0.352778" />
    <path
       inkscape:connector-curvature="0"
       id="path3777"
       style="fill:#ffffff;fill-opacity:1;fill-rule:nonzero;stroke:none;stroke-width:0.03527778"
       d="m 95.511675,57.630273 h -0.35278 v -0.705556 h 0.35278 v 0.705556" />
    <path
       inkscape:connector-curvature="0"
       id="path3787"
       style="fill:#ffffff;fill-opacity:1;fill-rule:nonzero;stroke:none;stroke-width:0.03527778"
       d="m 64.058715,34.943488 h 0.70555 V 34.59071 h -0.70555 z" />
    <path
       inkscape:connector-curvature="0"
       id="path3805"
       style="fill:#ffffff;fill-opacity:1;fill-rule:nonzero;stroke:none;stroke-width:0.03527778"
       d="m 62.172405,41.669902 h 0.70528 v -0.352778 h -0.70528 z" />
    <path
       inkscape:connector-curvature="0"
       id="path3819"
       style="fill:#ffffff;fill-opacity:1;fill-rule:nonzero;stroke:none;stroke-width:0.03527778"
       d="m 59.978135,55.078984 h 0.35277 v -0.705556 h -0.35277 z" />
    <path
       inkscape:connector-curvature="0"
       id="path4047"
       style="fill:#575756;fill-opacity:1;fill-rule:nonzero;stroke:none;stroke-width:0.03527778"
       d="M 54.392605,59.512695 H 102.10226 V 32.106555 H 54.392605 Z" />
    <path
       inkscape:connector-curvature="0"
       id="path4049"
       style="fill:#646463;fill-opacity:1;fill-rule:nonzero;stroke:none;stroke-width:0.03527778"
       d="m 55.822405,58.691357 h -0.43215 V 32.908313 h 45.316415 l -8.100825,4.653139 h -34.03671 v 0.845608 h 32.56527 l -1.14441,0.657225 h -31.42086 v 0.845961 h 29.94837 l -2.37244,1.362781 h -27.57593 v 2.066925 h 23.9776 l -1.78364,1.024467 h -22.19396 v 0.845608 h 20.72217 l -1.14441,0.657225 h -19.57776 v 0.845608 h 18.10597 l -2.56329,1.472495 h -15.54268 v 0.844901 h 14.0716 l -1.14441,0.657225 h -12.92719 v 0.845961 h 11.45505 l -2.45075,1.407584 h -9.0043 v 1.452033 h 6.47665 l -1.17616,0.675569 h -5.30049 v 0.844903 h 3.82976 l -1.14547,0.657931 h -2.68429 v 0.846314 h 1.21144 l -3.95817,2.273581 m 2.74673,-23.257508 v 1.452386 h 32.61148 v -1.452386 h -32.61148 m 19.67795,-3.097389 c -0.1263,0 -0.2279,-0.102658 -0.2279,-0.230011 v 0 h 0.4565 v 0 c 0,0.127353 -0.10231,0.230011 -0.2286,0.230011" />
    <path
       inkscape:connector-curvature="0"
       id="path4051"
       style="fill:#f4f4f4;fill-opacity:1;fill-rule:nonzero;stroke:none;stroke-width:0.03527778"
       d="m 85.049695,65.306787 h -13.84159 c 0,0 -0.0727,6.027103 -1.53,7.118951 h 16.90194 c -1.45768,-1.091848 -1.53035,-7.118951 -1.53035,-7.118951" />
    <path
       inkscape:connector-curvature="0"
       id="path4053"
       style="fill:#ececec;fill-opacity:1;fill-rule:nonzero;stroke:none;stroke-width:0.03527778"
       d="m 86.580045,72.425738 h -16.90194 c -1.45662,1.092624 -3.5694,1.967831 1.53,1.967831 5.09976,0 6.9215,0 6.9215,0 0,0 1.82033,0 6.92009,0 5.10011,0 2.98697,-0.875207 1.53035,-1.967831" />
    <path
       inkscape:connector-curvature="0"
       id="path4055"
       style="fill:#f5f5f5;fill-opacity:1;fill-rule:nonzero;stroke:none;stroke-width:0.03527778"
       d="m 77.260005,62.918094 3.5e-4,-0.01447 c 0.005,-0.07553 0.0169,-0.145661 0.0402,-0.219392 0.0455,-0.132715 0.11924,-0.245285 0.23424,-0.329211 0.0956,-0.06766 0.20073,-0.106256 0.31927,-0.109714 0.0698,-0.0029 0.13617,0.01791 0.20073,0.03983 0.055,0.02082 0.11077,0.04025 0.16862,0.05789 h 0.0787 c 0.0628,-0.02125 0.12489,-0.04134 0.18662,-0.06283 0.0575,-0.0204 0.11607,-0.03489 0.17533,-0.04163 0.0494,-0.0028 0.0977,0.0032 0.14464,0.01172 0.1196,0.02177 0.22508,0.07235 0.30904,0.162594 l 0.0579,0.06809 c -0.18839,0.115075 -0.27799,0.279752 -0.26353,0.495969 0.0162,0.217311 0.13265,0.364773 0.3242,0.46041 l -0.004,0.01087 c -0.0501,0.147884 -0.12347,0.282647 -0.2159,0.407916 -0.0441,0.05923 -0.0921,0.117793 -0.15275,0.161891 -0.0635,0.04865 -0.13652,0.06988 -0.2166,0.05542 -0.0533,-0.0099 -0.1009,-0.02617 -0.14852,-0.04547 -0.0663,-0.02617 -0.13159,-0.04494 -0.20285,-0.04494 -0.073,0 -0.14464,0.01876 -0.21273,0.04699 -0.0339,0.01199 -0.0699,0.02537 -0.10442,0.03666 -0.0575,0.01558 -0.11571,0.02125 -0.17356,-0.0031 -0.0543,-0.02151 -0.0963,-0.05638 -0.13653,-0.09412 -0.0515,-0.0513 -0.0928,-0.108339 -0.13511,-0.166899 -0.15487,-0.222004 -0.24483,-0.464257 -0.27058,-0.733531 l -0.003,-0.04643 c 0,-0.03432 0,-0.0696 0,-0.104458 z m 0.98566,-0.796256 c 0.0176,-0.195402 0.17745,-0.401812 0.42193,-0.457903 l 0.0459,-0.0092 h 0.018 c -7.2e-4,0.03433 0,0.06989 -0.002,0.104881 -0.006,0.07867 -0.0349,0.149508 -0.0769,0.21664 -0.0512,0.08142 -0.1143,0.149932 -0.20003,0.195406 -0.0632,0.03457 -0.13053,0.04685 -0.19967,0.04187 l -0.007,-0.0013 z m -24.74365,2.090492 c 0,0.602226 0.49159,1.094457 1.09414,1.094457 h 47.303615 c 0.60148,0 1.09361,-0.492231 1.09361,-1.094457 V 60.552261 H 53.502015 v 3.660069" />
    <path
       inkscape:connector-curvature="0"
       id="path4057"
       style="fill:#3c3c3b;fill-opacity:1;fill-rule:nonzero;stroke:none;stroke-width:0.03527778"
       d="M 101.1039,58.691357 H 55.390255 V 32.908313 H 101.1039 V 58.691357 M 78.247085,31.878908 c 0.12629,0 0.2286,0.102658 0.2286,0.227541 0,0.127353 -0.10231,0.230011 -0.2286,0.230011 -0.1263,0 -0.2279,-0.102658 -0.2279,-0.230011 0,-0.124883 0.1016,-0.227541 0.2279,-0.227541 M 101.89977,31.261194 H 54.596155 c -0.60255,0 -1.09414,0.493536 -1.09414,1.094316 V 60.552261 H 102.99338 V 32.35551 c 0,-0.60078 -0.49213,-1.094316 -1.09361,-1.094316" />
    <path
       inkscape:connector-curvature="0"
       id="path4059"
       style="fill:#575756;fill-opacity:1;fill-rule:nonzero;stroke:none;stroke-width:0.03527778"
       d="m 77.533415,63.802509 c 0.0423,0.05856 0.0836,0.115604 0.13511,0.166899 0.0402,0.03774 0.0822,0.0726 0.13653,0.09412 0.0579,0.02437 0.11606,0.01873 0.17356,0.0031 0.0346,-0.0113 0.0706,-0.02466 0.10442,-0.03666 0.0681,-0.02822 0.1397,-0.04699 0.21273,-0.04699 0.0713,0 0.13652,0.01876 0.20285,0.04494 0.0476,0.01929 0.0953,0.03556 0.14852,0.04547 0.0801,0.01447 0.1531,-0.0068 0.2166,-0.05542 0.0607,-0.0441 0.10866,-0.102659 0.15275,-0.161891 0.0924,-0.125269 0.16581,-0.260032 0.2159,-0.407916 l 0.004,-0.01087 c -0.19155,-0.09564 -0.30797,-0.243099 -0.3242,-0.46041 -0.0145,-0.216217 0.0751,-0.380894 0.26353,-0.495969 l -0.0579,-0.06809 c -0.084,-0.09024 -0.18945,-0.140827 -0.30904,-0.162594 -0.0469,-0.0085 -0.0952,-0.01447 -0.14464,-0.01172 -0.0593,0.0067 -0.11782,0.02125 -0.17533,0.04163 -0.0617,0.02148 -0.12382,0.04159 -0.18662,0.06283 h -0.0787 c -0.0579,-0.01765 -0.11359,-0.03708 -0.16862,-0.05789 -0.0646,-0.02191 -0.13088,-0.04272 -0.20073,-0.03983 -0.11854,0.0035 -0.22367,0.04205 -0.31927,0.109714 -0.115,0.08393 -0.18873,0.196496 -0.23424,0.329211 -0.0233,0.07373 -0.0356,0.143864 -0.0402,0.219392 l -3.5e-4,0.01447 c 0,0.03485 0,0.07013 0,0.104458 l 0.003,0.04643 c 0.0257,0.269274 0.11571,0.511527 0.27058,0.733531" />
    <path
       inkscape:connector-curvature="0"
       id="path4061"
       style="fill:#f5f5f5;fill-opacity:1;fill-rule:nonzero;stroke:none;stroke-width:0.03527778"
       d="m 78.452045,62.171617 c 0.0857,-0.04547 0.14887,-0.113982 0.20002,-0.195405 0.042,-0.06713 0.0706,-0.13797 0.0769,-0.216641 0.002,-0.03499 0.002,-0.07055 0.002,-0.104881 h -0.018 l -0.0459,0.0092 c -0.24447,0.05609 -0.40428,0.262501 -0.42192,0.457904 v 0.09028 l 0.007,0.0013 c 0.0691,0.005 0.13653,-0.0073 0.19968,-0.04187" />
    <path
       inkscape:connector-curvature="0"
       id="path4063"
       style="fill:#9c9b9b;fill-opacity:1;fill-rule:nonzero;stroke:none;stroke-width:0.03527778"
       d="m 78.247085,32.33646 c 0.12629,0 0.2286,-0.102658 0.2286,-0.229658 0,-0.125236 -0.10231,-0.227894 -0.2286,-0.227894 -0.1263,0 -0.2279,0.102658 -0.2279,0.227894 0,0.127 0.1016,0.229658 0.2279,0.229658" />
    <path
       inkscape:connector-curvature="0"
       id="path4219"
       style="fill:#575756;fill-opacity:1;fill-rule:nonzero;stroke:none;stroke-width:0.03527778"
       d="m 79.580935,63.158971 c 0,0.735859 -0.59655,1.332407 -1.3328,1.332407 -0.73624,0 -1.33279,-0.596548 -1.33279,-1.332407 0,-0.736566 0.59655,-1.333111 1.33279,-1.333111 0.73625,0 1.3328,0.596545 1.3328,1.333111" />
    <path
       inkscape:connector-curvature="0"
       id="path4221"
       style="fill:#898989;fill-opacity:1;fill-rule:nonzero;stroke:none;stroke-width:0.03527778"
       d="m 91.180615,43.339952 h -8.63388 l 3.59833,-2.066925 h 5.03555 v 2.066925" />
    <path
       inkscape:connector-curvature="0"
       id="path4223"
       style="fill:#939392;fill-opacity:1;fill-rule:nonzero;stroke:none;stroke-width:0.03527778"
       d="m 82.546735,43.339952 h -23.9776 v -2.066925 h 27.57593 l -3.59833,2.066925" />
    <path
       inkscape:connector-curvature="0"
       id="path4225"
       style="fill:#898989;fill-opacity:1;fill-rule:nonzero;stroke:none;stroke-width:0.03527778"
       d="m 82.334015,53.393059 h -17.28823 l 2.52765,-1.452033 h 14.76058 v 1.452033" />
    <path
       inkscape:connector-curvature="0"
       id="path4227"
       style="fill:#939392;fill-opacity:1;fill-rule:nonzero;stroke:none;stroke-width:0.03527778"
       d="m 65.045785,53.393059 h -6.47665 v -1.452033 h 9.0043 l -2.52765,1.452033" />
    <path
       inkscape:connector-curvature="0"
       id="path4229"
       style="fill:#898989;fill-opacity:1;fill-rule:nonzero;stroke:none;stroke-width:0.03527778"
       d="m 98.140575,54.913531 h -35.74168 l 1.47073,-0.844903 h 34.27095 v 0.844903" />
    <path
       inkscape:connector-curvature="0"
       id="path4231"
       style="fill:#939392;fill-opacity:1;fill-rule:nonzero;stroke:none;stroke-width:0.03527778"
       d="m 62.398895,54.913531 h -3.82976 v -0.844903 h 5.30049 l -1.47073,0.844903" />
    <path
       inkscape:connector-curvature="0"
       id="path4233"
       style="fill:#898989;fill-opacity:1;fill-rule:nonzero;stroke:none;stroke-width:0.03527778"
       d="m 94.992735,56.417776 h -35.21216 l 1.47285,-0.846314 h 33.73931 v 0.846314" />
    <path
       inkscape:connector-curvature="0"
       id="path4235"
       style="fill:#939392;fill-opacity:1;fill-rule:nonzero;stroke:none;stroke-width:0.03527778"
       d="m 59.780575,56.417776 h -1.21144 v -0.846314 h 2.68429 l -1.47285,0.846314" />
    <path
       inkscape:connector-curvature="0"
       id="path4237"
       style="fill:#898989;fill-opacity:1;fill-rule:nonzero;stroke:none;stroke-width:0.03527778"
       d="m 93.612315,49.030256 h -20.97158 l 1.47108,-0.844901 h 19.5005 v 0.844901" />
    <path
       inkscape:connector-curvature="0"
       id="path4239"
       style="fill:#939392;fill-opacity:1;fill-rule:nonzero;stroke:none;stroke-width:0.03527778"
       d="m 72.640735,49.030256 h -14.0716 v -0.844901 h 15.54268 l -1.47108,0.844901" />
    <path
       inkscape:connector-curvature="0"
       id="path4241"
       style="fill:#898989;fill-opacity:1;fill-rule:nonzero;stroke:none;stroke-width:0.03527778"
       d="m 91.180615,50.533442 h -21.15643 l 1.47214,-0.845961 h 19.68429 v 0.845961" />
    <path
       inkscape:connector-curvature="0"
       id="path4243"
       style="fill:#939392;fill-opacity:1;fill-rule:nonzero;stroke:none;stroke-width:0.03527778"
       d="m 70.024185,50.533442 h -11.45505 v -0.845961 h 12.92719 l -1.47214,0.845961" />
    <path
       inkscape:connector-curvature="0"
       id="path4245"
       style="fill:#898989;fill-opacity:1;fill-rule:nonzero;stroke:none;stroke-width:0.03527778"
       d="m 93.612315,45.210027 h -14.32101 l 1.47179,-0.845608 h 12.84922 v 0.845608" />
    <path
       inkscape:connector-curvature="0"
       id="path4247"
       style="fill:#939392;fill-opacity:1;fill-rule:nonzero;stroke:none;stroke-width:0.03527778"
       d="m 79.291305,45.210027 h -20.72217 v -0.845608 h 22.19396 l -1.47179,0.845608" />
    <path
       inkscape:connector-curvature="0"
       id="path4249"
       style="fill:#898989;fill-opacity:1;fill-rule:nonzero;stroke:none;stroke-width:0.03527778"
       d="m 98.140575,46.71286 h -21.46547 l 1.47179,-0.845608 h 19.99368 v 0.845608" />
    <path
       inkscape:connector-curvature="0"
       id="path4251"
       style="fill:#939392;fill-opacity:1;fill-rule:nonzero;stroke:none;stroke-width:0.03527778"
       d="m 76.675105,46.71286 h -18.10597 v -0.845608 h 19.57776 l -1.47179,0.845608" />
    <path
       inkscape:connector-curvature="0"
       id="path4253"
       style="fill:#939392;fill-opacity:1;fill-rule:nonzero;stroke:none;stroke-width:0.03527778"
       d="m 58.569135,36.886235 h 32.61156 v -1.452453 h -32.61156 z" />
    <path
       inkscape:connector-curvature="0"
       id="path4255"
       style="fill:#898989;fill-opacity:1;fill-rule:nonzero;stroke:none;stroke-width:0.03527778"
       d="m 98.140575,38.40706 h -7.00617 l 1.47144,-0.845608 h 5.53473 v 0.845608" />
    <path
       inkscape:connector-curvature="0"
       id="path4257"
       style="fill:#939392;fill-opacity:1;fill-rule:nonzero;stroke:none;stroke-width:0.03527778"
       d="m 91.134405,38.40706 h -32.56527 v -0.845608 h 34.03671 l -1.47144,0.845608" />
    <path
       inkscape:connector-curvature="0"
       id="path4259"
       style="fill:#898989;fill-opacity:1;fill-rule:nonzero;stroke:none;stroke-width:0.02116335"
       d="m 90.847858,39.910246 h -2.330353 l 0.52993,-0.845961 h 1.800423 v 0.845961" />
    <path
       inkscape:connector-curvature="0"
       id="path4261"
       style="fill:#939392;fill-opacity:1;fill-rule:nonzero;stroke:none;stroke-width:0.03527778"
       d="m 88.517505,39.910246 h -29.94837 v -0.845961 h 31.42086 l -1.47249,0.845961" />
  </g>
</svg>
