<?xml version="1.0" encoding="utf-8"?>
<!-- Svg Vector Icons : http://www.onlinewebfonts.com/icon -->
<!DOCTYPE svg PUBLIC "-//W3C//DTD SVG 1.1//EN" "http://www.w3.org/Graphics/SVG/1.1/DTD/svg11.dtd">
<svg version="1.1" xmlns="http://www.w3.org/2000/svg" xmlns:xlink="http://www.w3.org/1999/xlink" x="0px" y="0px" viewBox="0 0 1000 1000" enable-background="new 0 0 1000 1000" xml:space="preserve">
<metadata> Svg Vector Icons : http://www.onlinewebfonts.com/icon </metadata>
<g><g><g><path fill="white" d="M235.1,989.9c-50,0-97.1-19.5-132.4-54.9l-37.8-37.8C29.5,862,10,814.9,10,764.9s19.5-97.1,54.8-132.4l246-246c70.8-70.8,194.2-70.8,264.9,0l37.8,37.8c10.5,10.5,10.5,27.4,0,37.8c-10.5,10.5-27.4,10.5-37.8,0l-37.8-37.8c-50.5-50.5-138.6-50.6-189.2,0l-246,246c-25.3,25.2-39.2,58.8-39.2,94.6s13.9,69.3,39.2,94.6l37.8,37.8c50.5,50.6,138.7,50.6,189.2,0L500,726.9c10.5-10.5,27.4-10.5,37.8,0c10.4,10.5,10.4,27.4,0,37.8L367.5,935.1C332.2,970.4,285.2,989.9,235.1,989.9z M556.7,668.3L556.7,668.3c-50.1,0-97.1-19.5-132.4-54.9c-10.4-10.4-10.4-27.4,0.1-37.8c10.4-10.5,27.4-10.5,37.8,0c25.2,25.3,58.8,39.2,94.5,39.2c0.1,0,0.1,0,0.1,0c35.7,0,69.3-14,94.6-39.2l246-246c25.3-25.3,39.2-58.8,39.2-94.6c0-35.7-13.9-69.3-39.2-94.6l-37.8-37.8c-52.3-52.2-137.1-52.2-189.2,0L500,272.9c-10.5,10.5-27.4,10.5-37.8,0c-10.5-10.5-10.5-27.4,0-37.8L632.5,64.8c73.1-73,191.8-73,264.8,0l37.8,37.8C970.5,138,990,185,990,235c0,50-19.5,97.1-54.9,132.4l-246,246C653.8,648.9,606.8,668.3,556.7,668.3z"/></g></g><g></g><g></g><g></g><g></g><g></g><g></g><g></g><g></g><g></g><g></g><g></g><g></g><g></g><g></g><g></g></g>
</svg>